<?xml version="1.0" standalone="no"?>
<!DOCTYPE svg PUBLIC "-//W3C//DTD SVG 20010904//EN"
 "http://www.w3.org/TR/2001/REC-SVG-20010904/DTD/svg10.dtd">
<svg version="1.0" xmlns="http://www.w3.org/2000/svg"
 width="765.000000pt" height="625.000000pt" viewBox="0 0 765.000000 625.000000"
 preserveAspectRatio="xMidYMid meet">

<g transform="translate(0.000000,625.000000) scale(0.100000,-0.100000)"
fill="#000000" stroke="none">
<path d="M0 3125 l0 -3125 3825 0 3825 0 0 3125 0 3125 -3825 0 -3825 0 0
-3125z m4002 1195 c158 -18 264 -76 310 -169 22 -43 54 -147 89 -289 l10 -43
24 35 c15 22 24 49 23 69 -2 46 7 57 48 57 43 0 54 -23 45 -100 -8 -68 -15
-80 -47 -80 -19 0 -28 8 -38 32 l-14 31 -13 -24 c-7 -13 -13 -50 -14 -82 l-1
-58 -79 -34 c-192 -84 -409 -277 -482 -429 -11 -25 -23 -36 -38 -36 -15 0 -27
11 -38 36 -73 153 -289 345 -482 429 l-80 35 3 43 c2 26 -3 60 -13 83 l-16 39
-14 -32 c-11 -25 -20 -33 -39 -33 -14 0 -30 8 -35 19 -12 22 -17 133 -7 150 4
6 23 11 42 11 38 0 55 -25 48 -71 -3 -16 4 -34 21 -53 14 -15 27 -27 29 -25 1
2 10 38 20 79 9 41 28 112 42 156 47 154 149 231 334 254 96 11 263 11 362 0z
m-644 -699 c54 -28 190 -127 240 -174 59 -57 135 -153 161 -204 l21 -42 -48
-3 -47 -3 -5 -50 -5 -50 -60 -1 c-76 0 -83 -2 -65 -14 8 -5 40 -10 71 -10 48
0 57 -3 62 -20 5 -19 14 -20 147 -20 133 0 142 1 147 20 4 16 14 20 53 20 52
0 80 7 80 21 0 4 -29 6 -65 2 l-65 -6 0 41 c0 64 -6 72 -56 72 -25 0 -44 5
-44 11 0 6 19 41 43 77 48 75 151 181 241 249 65 48 254 145 268 137 12 -8 10
-444 -3 -504 -14 -64 -27 -70 -155 -70 -64 0 -94 -4 -94 -11 0 -19 227 -5 249
15 36 32 57 -36 26 -82 -9 -12 -30 -25 -48 -30 -31 -8 -32 -10 -35 -67 -2 -33
-9 -63 -15 -67 -18 -11 -115 -10 -138 2 -15 9 -19 22 -19 65 0 42 -3 55 -15
55 -8 0 -15 -4 -15 -10 0 -5 -11 -10 -25 -10 -14 0 -25 5 -25 10 0 16 -565 13
-590 -2 -16 -10 -24 -10 -40 0 -29 18 -30 17 -30 -43 0 -65 -12 -75 -94 -75
-71 0 -86 15 -86 86 0 46 -3 54 -19 54 -34 0 -71 39 -71 73 0 18 4 39 10 47 7
12 12 12 29 -4 15 -14 43 -19 135 -23 84 -4 116 -3 116 6 0 7 -26 11 -77 12
-43 0 -96 3 -118 7 -35 6 -42 12 -53 45 -16 50 -27 326 -18 439 l8 87 49 -20
c28 -10 67 -28 87 -38z m602 -506 l0 -65 -135 0 -135 0 0 65 0 65 135 0 135 0
0 -65z m-212 -417 c7 -7 12 -21 12 -33 0 -28 -19 -45 -50 -45 -31 0 -50 17
-50 45 0 28 19 45 50 45 14 0 31 -5 38 -12z m1957 -18 c15 -17 18 -36 17 -112
-2 -149 -39 -236 -81 -193 -13 13 -16 42 -16 156 0 128 2 142 19 155 27 19 40
18 61 -6z m-3538 -26 c26 -15 53 -43 70 -72 24 -40 28 -58 28 -122 0 -50 -6
-85 -17 -105 -16 -29 -16 -29 26 -66 34 -32 39 -40 30 -56 -18 -29 -49 -27
-87 7 l-35 30 -38 -22 c-56 -33 -155 -31 -215 4 -64 38 -93 94 -94 183 0 75
14 120 52 173 60 80 185 101 280 46z m2356 -42 c26 -28 41 -118 41 -237 0
-137 -13 -182 -63 -228 -81 -73 -261 -71 -261 3 0 31 20 39 85 33 102 -9 132
7 149 81 l7 29 -31 -27 c-57 -47 -126 -47 -173 2 -37 38 -47 73 -47 155 0 81
23 144 61 171 33 23 104 21 140 -5 29 -20 29 -20 29 0 0 11 8 25 18 30 23 14
27 14 45 -7z m-1908 2 c36 -14 49 -64 53 -209 4 -125 2 -143 -15 -163 -23 -30
-52 -20 -60 20 -5 28 -6 28 -20 8 -18 -26 -65 -50 -98 -50 -38 0 -83 26 -99
59 -36 69 -46 270 -16 306 15 18 56 20 66 3 5 -7 11 -64 15 -126 5 -87 11
-118 25 -133 23 -25 59 -24 85 2 21 21 22 28 16 137 -6 99 -4 119 10 134 18
21 16 20 38 12z m723 -6 c5 -7 21 -56 35 -108 25 -94 65 -210 72 -210 8 0 44
137 58 216 8 45 17 87 21 93 12 18 54 13 66 -8 26 -49 1 -183 -52 -284 -35
-66 -65 -90 -109 -90 -38 0 -60 22 -103 102 -54 104 -80 236 -56 282 12 21 52
26 68 7z m733 -11 c56 -37 82 -102 87 -223 2 -56 2 -114 -2 -127 -10 -42 -59
-46 -71 -6 -6 18 -7 18 -35 -3 -60 -44 -178 -31 -215 25 -19 30 -22 95 -6 126
30 56 130 78 207 46 35 -14 35 -14 29 8 -12 42 -28 67 -49 73 -32 11 -78 6
-118 -11 -74 -30 -103 23 -41 76 49 44 161 52 214 16z m1203 9 c19 -8 37 -24
41 -35 8 -27 16 -26 45 3 51 55 137 41 172 -27 18 -37 20 -53 16 -152 -6 -132
-23 -178 -66 -173 -35 4 -40 29 -26 140 16 129 3 168 -51 154 -36 -9 -48 -40
-56 -146 -9 -110 -14 -127 -40 -135 -39 -13 -47 9 -50 139 -4 132 -13 156 -55
156 -43 0 -57 -40 -62 -169 -4 -119 -11 -141 -43 -141 -40 0 -49 36 -49 190 0
161 9 195 50 195 20 0 26 -6 28 -29 l4 -28 15 22 c14 19 64 49 86 50 4 0 23
-6 41 -14z m-2261 -7 c59 -30 78 -120 36 -173 -40 -51 -127 -74 -201 -53 -21
6 -28 4 -28 -7 0 -8 12 -24 28 -36 24 -19 35 -21 97 -16 39 3 87 8 107 12 34
6 38 4 44 -22 6 -22 2 -32 -19 -50 -34 -29 -118 -47 -185 -38 -101 12 -152 72
-152 177 0 93 45 171 115 203 37 16 129 18 158 3z m1897 -2 c36 -18 62 -74 55
-117 -15 -84 -125 -136 -227 -107 -36 10 -36 -6 -2 -40 24 -24 29 -25 102 -19
157 13 147 14 147 -18 0 -38 -34 -63 -106 -77 -112 -22 -217 22 -239 99 -32
115 11 231 102 275 39 20 133 22 168 4z m-1164 -62 c17 -41 19 -211 4 -267 -6
-21 -21 -43 -32 -49 -18 -10 -25 -8 -40 11 -33 41 -23 280 15 328 17 22 38 13
53 -23z m1964 -225 c11 -11 20 -29 20 -40 0 -26 -34 -60 -60 -60 -25 0 -60 34
-60 59 0 21 44 61 66 61 8 0 23 -9 34 -20z"/>
<path d="M3618 4300 c-172 -29 -254 -98 -303 -253 -31 -97 -78 -324 -70 -337
4 -6 12 -10 18 -10 7 0 48 -18 92 -40 187 -96 350 -245 435 -397 13 -24 29
-43 36 -43 7 0 26 24 42 53 84 147 248 293 430 384 l113 56 -7 46 c-9 69 -41
205 -70 299 -41 134 -123 206 -273 238 -72 15 -361 18 -443 4z m671 -186 c9
-11 29 -76 45 -144 28 -122 28 -123 8 -149 l-19 -26 -216 -3 c-274 -3 -257
-14 -257 166 0 137 9 166 53 175 12 3 100 4 195 4 163 -2 175 -3 191 -23z
m-503 -5 c17 -18 19 -37 19 -149 0 -181 17 -170 -252 -170 -281 0 -275 -5
-228 197 14 59 33 115 42 125 14 16 36 18 208 18 182 0 193 -1 211 -21z"/>
<path d="M3889 4101 c-22 -18 -24 -27 -27 -135 -4 -112 -3 -116 22 -141 25
-25 25 -25 210 -25 193 0 230 6 241 38 10 34 -42 245 -66 265 -18 15 -44 17
-189 17 -150 0 -170 -2 -191 -19z"/>
<path d="M3386 4107 c-11 -8 -27 -50 -42 -113 -47 -198 -49 -196 221 -192 181
3 198 5 211 22 10 15 14 52 14 138 0 165 9 158 -213 158 -127 0 -178 -4 -191
-13z"/>
<path d="M3115 3948 c-3 -7 -2 -40 3 -73 6 -51 10 -60 27 -60 17 0 21 10 28
59 5 32 6 65 3 72 -7 17 -55 18 -61 2z"/>
<path d="M4480 3902 c0 -64 20 -106 40 -85 7 6 15 41 17 77 l6 66 -32 0 -31 0
0 -58z"/>
<path d="M3232 3414 c5 -282 8 -294 71 -294 24 0 78 -3 120 -6 72 -7 77 -8 77
-30 0 -23 -3 -24 -77 -23 -107 1 -196 13 -201 27 -6 19 -22 3 -22 -22 0 -27
29 -56 56 -56 34 0 43 -15 46 -75 l3 -60 65 0 65 0 3 63 c3 59 4 62 28 62 13
0 27 -7 30 -15 5 -12 9 -13 21 -4 10 9 98 12 311 13 253 1 299 -1 309 -14 10
-13 12 -13 18 3 4 9 18 17 31 17 22 0 24 -4 24 -52 0 -75 6 -80 81 -76 l64 3
5 65 5 65 35 5 c23 3 38 13 46 28 12 25 7 73 -6 52 -9 -14 -114 -30 -207 -30
-70 0 -73 1 -73 24 0 21 5 24 68 29 37 4 88 7 114 7 71 0 72 4 76 288 3 196 1
242 -10 242 -7 -1 -38 -14 -68 -30 -41 -22 -49 -29 -32 -30 30 0 72 -43 72
-73 0 -55 -69 -85 -118 -51 -24 17 -30 61 -11 96 8 14 -7 8 -53 -23 -81 -54
-225 -199 -266 -266 l-32 -53 35 0 c41 0 65 -29 65 -77 l0 -33 65 0 c63 0 65
-1 65 -25 0 -24 -3 -25 -61 -25 -53 0 -64 -3 -81 -25 -20 -25 -20 -26 -166
-23 -142 3 -147 4 -157 26 -9 20 -17 22 -77 22 -66 0 -68 1 -68 25 0 24 2 25
70 25 l70 0 0 39 c0 47 20 71 61 71 16 0 29 3 29 8 -1 16 -84 121 -147 185
-37 37 -100 90 -139 117 -67 46 -72 48 -59 23 20 -37 19 -45 -6 -77 -35 -45
-102 -31 -121 25 -3 8 0 30 8 47 10 24 22 34 45 39 l32 6 -44 22 c-24 12 -55
26 -68 30 l-23 7 4 -238z m246 10 c26 -18 52 -65 52 -94 0 -81 -104 -138 -170
-93 -66 45 -72 136 -13 183 31 24 99 27 131 4z m831 -10 c79 -66 28 -194 -77
-194 -51 0 -102 54 -102 109 0 46 23 89 54 101 43 17 93 11 125 -16z"/>
<path d="M3384 3420 c-12 -4 -31 -21 -44 -37 -45 -57 1 -143 76 -143 73 0 121
91 76 146 -32 40 -67 51 -108 34z m89 -42 c32 -37 17 -101 -29 -118 -43 -17
-103 19 -104 62 -1 73 86 110 133 56z"/>
<path d="M3377 3372 c-22 -24 -21 -65 1 -85 32 -29 78 -19 93 20 22 59 -53
111 -94 65z"/>
<path d="M4210 3423 c-54 -20 -81 -83 -56 -132 31 -58 104 -70 150 -25 66 67
-7 189 -94 157z m83 -41 c10 -9 17 -29 17 -52 0 -83 -109 -104 -141 -28 -30
74 62 134 124 80z"/>
<path d="M4197 3372 c-10 -10 -17 -28 -17 -40 0 -28 34 -62 60 -62 21 0 60 33
60 51 0 15 -21 53 -34 61 -20 13 -53 8 -69 -10z"/>
<path d="M3304 3545 c-20 -31 -10 -63 23 -76 55 -21 98 46 55 84 -27 24 -59
21 -78 -8z m73 -11 c8 -22 -10 -49 -32 -49 -10 0 -22 7 -28 16 -15 24 -1 49
28 49 15 0 28 -7 32 -16z"/>
<path d="M3337 3533 c-4 -3 -7 -12 -7 -20 0 -15 26 -18 34 -4 7 11 -18 33 -27
24z"/>
<path d="M4265 3546 c-19 -28 -9 -58 26 -76 28 -15 69 11 69 45 0 53 -66 75
-95 31z m73 -28 c4 -33 -31 -49 -55 -25 -24 24 -8 59 25 55 21 -2 28 -9 30
-30z"/>
<path d="M4294 3529 c-8 -14 11 -33 25 -25 11 7 4 36 -9 36 -5 0 -12 -5 -16
-11z"/>
<path d="M3710 3115 l0 -55 115 0 115 0 0 55 0 55 -115 0 -115 0 0 -55z"/>
<path d="M2001 2588 c-87 -47 -94 -210 -10 -253 30 -16 106 -20 127 -6 10 6 7
12 -13 25 -31 20 -47 56 -33 74 16 19 47 14 72 -13 13 -14 26 -25 30 -25 12 0
6 101 -8 133 -7 18 -23 40 -34 51 -27 23 -99 31 -131 14z"/>
<path d="M4345 2515 c-21 -20 -25 -34 -25 -84 0 -97 29 -133 95 -117 74 19 80
182 9 215 -37 16 -52 14 -79 -14z"/>
<path d="M3922 2368 c-7 -7 -12 -21 -12 -33 0 -32 20 -45 70 -45 74 0 121 53
71 80 -27 14 -114 13 -129 -2z"/>
<path d="M2875 2528 c-44 -24 -62 -80 -29 -92 30 -11 100 -6 122 10 24 17 30
62 10 82 -15 15 -76 15 -103 0z"/>
<path d="M4751 2514 c-53 -45 -36 -84 37 -84 76 0 117 40 87 86 -22 34 -82 33
-124 -2z"/>
</g>
</svg>
